<svg width="14" height="14" viewBox="0 0 14 14" fill="none" xmlns="http://www.w3.org/2000/svg">
<g id="ph:bell">
<path id="Vector" d="M12.1298 9.62172C11.8263 9.09891 11.3751 7.61961 11.3751 5.6875C11.3751 4.52718 10.9142 3.41438 10.0937 2.59391C9.27322 1.77344 8.16042 1.3125 7.0001 1.3125C5.83978 1.3125 4.72698 1.77344 3.90651 2.59391C3.08603 3.41438 2.6251 4.52718 2.6251 5.6875C2.6251 7.62016 2.17338 9.09891 1.86986 9.62172C1.79236 9.75463 1.75127 9.90563 1.75074 10.0595C1.75021 10.2134 1.79026 10.3646 1.86686 10.4981C1.94345 10.6315 2.05388 10.7424 2.187 10.8196C2.32012 10.8967 2.47124 10.9374 2.6251 10.9375H4.8569C4.95783 11.4314 5.22627 11.8753 5.6168 12.1941C6.00732 12.5129 6.49598 12.687 7.0001 12.687C7.50422 12.687 7.99287 12.5129 8.3834 12.1941C8.77393 11.8753 9.04236 11.4314 9.1433 10.9375H11.3751C11.5289 10.9373 11.68 10.8965 11.813 10.8194C11.9461 10.7422 12.0564 10.6313 12.1329 10.4978C12.2095 10.3644 12.2495 10.2132 12.2489 10.0594C12.2484 9.90554 12.2073 9.75459 12.1298 9.62172ZM7.0001 11.8125C6.72875 11.8124 6.4641 11.7282 6.24257 11.5715C6.02104 11.4148 5.85352 11.1933 5.76307 10.9375H8.23713C8.14668 11.1933 7.97916 11.4148 7.75763 11.5715C7.5361 11.7282 7.27145 11.8124 7.0001 11.8125ZM2.6251 10.0625C3.04619 9.33844 3.5001 7.66062 3.5001 5.6875C3.5001 4.75924 3.86885 3.869 4.52522 3.21263C5.1816 2.55625 6.07184 2.1875 7.0001 2.1875C7.92836 2.1875 8.81859 2.55625 9.47497 3.21263C10.1313 3.869 10.5001 4.75924 10.5001 5.6875C10.5001 7.65898 10.9529 9.3368 11.3751 10.0625H2.6251Z" fill="#9E9E9E"/>
</g>
</svg>
