<svg width="30" height="30" viewBox="0 0 30 30" fill="none" xmlns="http://www.w3.org/2000/svg">
<circle cx="15" cy="15" r="14.5" fill="#FAFAFA" stroke="#8AB6FD"/>
<path d="M9.99993 7.85718H19.9999C20.1894 7.85718 20.3711 7.93243 20.505 8.06639C20.639 8.20034 20.7142 8.38202 20.7142 8.57146V22.245C20.7143 22.3089 20.6973 22.3716 20.6649 22.4266C20.6325 22.4817 20.5859 22.527 20.53 22.5579C20.4742 22.5889 20.411 22.6043 20.3472 22.6025C20.2833 22.6007 20.2211 22.5819 20.1671 22.5479L14.9999 19.3072L9.83279 22.5472C9.77876 22.5811 9.71664 22.6 9.65286 22.6018C9.58908 22.6036 9.52599 22.5882 9.47014 22.5574C9.41429 22.5266 9.36772 22.4813 9.33528 22.4264C9.30283 22.3715 9.28569 22.3088 9.28564 22.245V8.57146C9.28564 8.38202 9.3609 8.20034 9.49485 8.06639C9.62881 7.93243 9.81049 7.85718 9.99993 7.85718Z" fill="#377FF8"/>
</svg>
