<svg width="26" height="26" viewBox="0 0 26 26" fill="none" xmlns="http://www.w3.org/2000/svg">
<circle cx="13" cy="13" r="12.5" fill="#FAFAFA" stroke="#8AB6FD"/>
<path d="M9.24428 7.51123H17.3332C17.4864 7.51123 17.6334 7.5721 17.7417 7.68046C17.8501 7.78881 17.9109 7.93577 17.9109 8.08901V19.1494C17.911 19.2011 17.8972 19.2518 17.871 19.2963C17.8448 19.3408 17.8072 19.3775 17.762 19.4025C17.7168 19.4275 17.6657 19.44 17.6141 19.4385C17.5624 19.4371 17.5121 19.4219 17.4684 19.3944L13.2887 16.773L9.10908 19.3938C9.06538 19.4213 9.01513 19.4365 8.96354 19.438C8.91195 19.4394 8.86092 19.427 8.81574 19.4021C8.77056 19.3771 8.73289 19.3405 8.70665 19.2961C8.6804 19.2517 8.66654 19.201 8.6665 19.1494V8.08901C8.6665 7.93577 8.72738 7.78881 8.83573 7.68046C8.94409 7.5721 9.09105 7.51123 9.24428 7.51123Z" fill="#377FF8"/>
</svg>
