<svg width="171" height="53" viewBox="0 0 171 53" fill="none" xmlns="http://www.w3.org/2000/svg">
<rect width="171" height="53" rx="5" fill="#424242"/>
<path d="M73.1953 18.125C73.1875 20.3594 72.9023 22.3984 72.3398 24.2422C71.7852 26.0859 70.8047 27.8047 69.3984 29.3984C67.9922 30.9922 66.0625 32.3906 63.6094 33.5938L62.3906 31.9297C64.2422 31.0234 65.7617 30.0078 66.9492 28.8828C68.1367 27.7578 69.0547 26.5117 69.7031 25.1445L62.8359 25.7891L62.5078 23.8672L70.3828 23.3398C70.6875 22.293 70.8828 21.1562 70.9688 19.9297H63.6094V18.125H73.1953ZM78.6328 24.3828H81.8906V26.2109H78.6328V36.9688H76.4062V15.9922H78.6328V24.3828ZM91.3772 20.2578H85.6584V24.125H90.4397V25.8594H85.6584V30.2656C87.0569 30.25 88.2561 30.2031 89.2561 30.125C90.2639 30.0469 91.2991 29.9141 92.3616 29.7266L92.5491 31.5312C91.4319 31.7578 90.3342 31.9062 89.2561 31.9766C88.178 32.0391 86.7209 32.0703 84.885 32.0703H83.5256V18.4766H91.3772V20.2578ZM100.823 36.9922H98.6663V15.9922H100.823V36.9922ZM96.4866 35.9375H94.3772V25.6719H91.5413V23.8672H94.3772V16.4375H96.4866V35.9375ZM120.27 20.0703C120.27 21.25 120.254 22.2773 120.223 23.1523C120.2 24.0195 120.129 25.0234 120.012 26.1641C119.903 27.3047 119.723 28.5391 119.473 29.8672L117.223 29.6328C117.473 28.375 117.657 27.1914 117.774 26.082C117.899 24.9648 117.973 23.9727 117.997 23.1055C118.028 22.2383 118.043 21.2266 118.043 20.0703V19.8125H105.293V18.0078H120.27V20.0703ZM122.426 34.1562H103.278V32.3047H110.567V24.8984H112.77V32.3047H122.426V34.1562ZM141.217 37.0391H138.991V15.9922H141.217V37.0391ZM134.796 25.5547H127.249V30.1484C129.092 30.1406 130.784 30.082 132.323 29.9727C133.87 29.8633 135.475 29.6719 137.139 29.3984L137.35 31.2266C135.6 31.5234 133.901 31.7266 132.253 31.8359C130.612 31.9453 128.78 32 126.757 32H124.975V23.7734H132.522V19.6953H124.952V17.8906H134.796V25.5547Z" fill="#FAFAFA"/>
<rect x="26.5" y="17" width="20" height="3" rx="1.5" fill="#FAFAFA"/>
<rect x="26.5" y="25" width="20" height="3" rx="1.5" fill="#FAFAFA"/>
<rect x="26.5" y="33" width="20" height="3" rx="1.5" fill="#FAFAFA"/>
</svg>
