<svg width="30" height="30" viewBox="0 0 30 30" fill="none" xmlns="http://www.w3.org/2000/svg">
<path id="Vector" d="M17.6641 28.3337V9.66699M17.6641 28.3337H9.66406C5.8934 28.3337 4.00673 28.3337 2.83606 27.1617C1.66406 25.991 1.66406 24.1043 1.66406 20.3337V9.66699C1.66406 5.89633 1.66406 4.00966 2.83606 2.83899C4.00673 1.66699 5.8934 1.66699 9.66406 1.66699C13.4347 1.66699 15.3214 1.66699 16.4921 2.83899C17.6641 4.00966 17.6641 5.89633 17.6641 9.66699M17.6641 28.3337H22.9974C25.5121 28.3337 26.7681 28.3337 27.5494 27.5523C28.3307 26.771 28.3307 25.515 28.3307 23.0003V15.0003C28.3307 12.4857 28.3307 11.2297 27.5494 10.4483C26.7681 9.66699 25.5121 9.66699 22.9974 9.66699H17.6641M7.66406 13.667H6.33073M12.9974 13.667H11.6641M7.66406 8.33366H6.33073M7.66406 19.0003H6.33073M12.9974 8.33366H11.6641M12.9974 19.0003H11.6641M23.6641 19.0003H22.3307M23.6641 13.667H22.3307" stroke="black" stroke-width="1.5" stroke-linecap="round" stroke-linejoin="round"/>
</svg>
