<svg width="24" height="24" viewBox="0 0 24 24" fill="none" xmlns="http://www.w3.org/2000/svg">
<g id="Group 428">
<g id="Group 427">
<circle id="Ellipse 101" cx="12" cy="12" r="12" fill="#9E9E9E"/>
</g>
<g id="Group 427_2">
<path id="Vector" d="M9.9582 14.625L17.0207 7.5625C17.1874 7.39583 17.3818 7.3125 17.604 7.3125C17.8263 7.3125 18.0207 7.39583 18.1874 7.5625C18.354 7.72917 18.4374 7.92722 18.4374 8.15667C18.4374 8.38611 18.354 8.58389 18.1874 8.75L10.5415 16.4167C10.3749 16.5833 10.1804 16.6667 9.9582 16.6667C9.73598 16.6667 9.54153 16.5833 9.37487 16.4167L5.79153 12.8333C5.62487 12.6667 5.54487 12.4689 5.55153 12.24C5.5582 12.0111 5.64514 11.8131 5.81237 11.6458C5.97959 11.4786 6.17764 11.3953 6.40653 11.3958C6.63542 11.3964 6.8332 11.4797 6.99987 11.6458L9.9582 14.625Z" fill="#FAFAFA"/>
</g>
</g>
</svg>
