<svg width="60" height="60" viewBox="0 0 60 60" fill="none" xmlns="http://www.w3.org/2000/svg">
<circle cx="30" cy="30" r="30" fill="#4386F8"/>
<path d="M32.6812 19.3329C31.5157 17.2242 28.4847 17.2242 27.3192 19.3329L18.1378 35.957C17.0108 37.9975 18.4878 40.5 20.8188 40.5H39.1824C41.5134 40.5 42.9904 37.9975 41.8625 35.957L32.6812 19.3329ZM31.0939 35.25C31.0939 35.5401 30.9787 35.8183 30.7736 36.0234C30.5684 36.2285 30.2902 36.3438 30.0002 36.3438C29.7101 36.3438 29.4319 36.2285 29.2268 36.0234C29.0216 35.8183 28.9064 35.5401 28.9064 35.25C28.9064 34.96 29.0216 34.6817 29.2268 34.4766C29.4319 34.2715 29.7101 34.1563 30.0002 34.1563C30.2902 34.1563 30.5684 34.2715 30.7736 34.4766C30.9787 34.6817 31.0939 34.96 31.0939 35.25ZM30.0002 23.875C30.2322 23.875 30.4548 23.9672 30.6189 24.1313C30.783 24.2954 30.8752 24.518 30.8752 24.75V31.75C30.8752 31.9821 30.783 32.2047 30.6189 32.3687C30.4548 32.5328 30.2322 32.625 30.0002 32.625C29.7681 32.625 29.5455 32.5328 29.3814 32.3687C29.2173 32.2047 29.1252 31.9821 29.1252 31.75V24.75C29.1252 24.518 29.2173 24.2954 29.3814 24.1313C29.5455 23.9672 29.7681 23.875 30.0002 23.875Z" fill="#FAFAFA"/>
</svg>
