<svg width="20" height="18" viewBox="0 0 20 18" fill="none" xmlns="http://www.w3.org/2000/svg">
<g id="proicons:eye-off">
<path id="Vector" d="M2.73521 16.3365L6.30021 13.128M6.30021 13.128L8.96104 10.7325M6.30021 13.128C5.93271 12.9225 5.59021 12.696 5.27354 12.4568C3.90354 11.4233 3.00104 10.164 2.57604 9.4868C2.48437 9.34055 2.43771 9.26705 2.41104 9.15305C2.39163 9.0518 2.39163 8.9483 2.41104 8.84705C2.43771 8.7323 2.48354 8.65955 2.57521 8.51255C3.37687 7.2368 5.87021 3.89255 10.0002 3.89255C11.431 3.89255 12.6669 4.29455 13.701 4.87205C14.0685 5.0768 14.411 5.3033 14.7277 5.54255M18.1519 2.46155L14.7277 5.54255M14.7277 5.54255L11.9252 8.0648M11.9252 8.0648C11.722 7.7274 11.4143 7.45042 11.0394 7.26755C10.7866 7.14473 10.5094 7.06793 10.2236 7.04152C9.93783 7.01512 9.64908 7.03963 9.37383 7.11366C9.09858 7.1877 8.84223 7.30979 8.61941 7.47299C8.39659 7.63619 8.21167 7.83728 8.07521 8.0648C7.93874 8.29231 7.8534 8.54179 7.82407 8.79899C7.79473 9.05619 7.82197 9.31606 7.90422 9.56379C7.98648 9.81151 8.12215 10.0422 8.30348 10.2428C8.48481 10.4433 8.70825 10.6097 8.96104 10.7325M11.9252 8.0648L8.96104 10.7325M16.4502 7.1843C16.8902 7.7048 17.216 8.1803 17.4252 8.51405C17.5169 8.65955 17.5627 8.73305 17.5894 8.84705C17.6085 8.93105 17.6085 9.06905 17.5894 9.15305C17.5627 9.26705 17.5169 9.34055 17.4252 9.48605C16.6252 10.7625 14.1335 14.1075 10.0002 14.1075C9.60354 14.1065 9.22187 14.0773 8.85521 14.0198" stroke="#757575" stroke-width="1.5" stroke-linecap="round" stroke-linejoin="round"/>
</g>
</svg>
