<svg width="60" height="60" viewBox="0 0 60 60" fill="none" xmlns="http://www.w3.org/2000/svg">
<circle cx="30" cy="30" r="30" fill="#4386F8"/>
<path d="M32.6812 19.3328C31.5157 17.224 28.4847 17.224 27.3192 19.3328L18.1378 35.9569C17.0108 37.9974 18.4878 40.4999 20.8188 40.4999H39.1824C41.5134 40.4999 42.9904 37.9974 41.8625 35.9569L32.6812 19.3328ZM31.0939 35.2499C31.0939 35.54 30.9787 35.8182 30.7736 36.0233C30.5684 36.2284 30.2902 36.3437 30.0002 36.3437C29.7101 36.3437 29.4319 36.2284 29.2268 36.0233C29.0216 35.8182 28.9064 35.54 28.9064 35.2499C28.9064 34.9598 29.0216 34.6816 29.2268 34.4765C29.4319 34.2714 29.7101 34.1562 30.0002 34.1562C30.2902 34.1562 30.5684 34.2714 30.7736 34.4765C30.9787 34.6816 31.0939 34.9598 31.0939 35.2499ZM30.0002 23.8749C30.2322 23.8749 30.4548 23.9671 30.6189 24.1312C30.783 24.2953 30.8752 24.5178 30.8752 24.7499V31.7499C30.8752 31.982 30.783 32.2045 30.6189 32.3686C30.4548 32.5327 30.2322 32.6249 30.0002 32.6249C29.7681 32.6249 29.5455 32.5327 29.3814 32.3686C29.2173 32.2045 29.1252 31.982 29.1252 31.7499V24.7499C29.1252 24.5178 29.2173 24.2953 29.3814 24.1312C29.5455 23.9671 29.7681 23.8749 30.0002 23.8749Z" fill="#FAFAFA"/>
</svg>
