<svg width="61" height="60" viewBox="0 0 61 60" fill="none" xmlns="http://www.w3.org/2000/svg">
<circle cx="30.5" cy="30" r="30" fill="#4386F8"/>
<path d="M26.8248 34.725L39.5373 22.0125C39.8373 21.7125 40.1873 21.5625 40.5873 21.5625C40.9873 21.5625 41.3373 21.7125 41.6373 22.0125C41.9373 22.3125 42.0873 22.669 42.0873 23.082C42.0873 23.495 41.9373 23.851 41.6373 24.15L27.8748 37.95C27.5748 38.25 27.2248 38.4 26.8248 38.4C26.4248 38.4 26.0748 38.25 25.7748 37.95L19.3248 31.5C19.0248 31.2 18.8808 30.844 18.8928 30.432C18.9048 30.02 19.0613 29.6635 19.3623 29.3625C19.6633 29.0615 20.0198 28.9115 20.4318 28.9125C20.8438 28.9135 21.1998 29.0635 21.4998 29.3625L26.8248 34.725Z" fill="#FAFAFA"/>
</svg>
