<svg width="24" height="24" viewBox="0 0 24 24" fill="none" xmlns="http://www.w3.org/2000/svg">
<g id="material-symbols-light:undo">
<path id="Vector" d="M7.404 18V17H14.658C15.6953 17 16.5787 16.6443 17.308 15.933C18.0387 15.2217 18.404 14.353 18.404 13.327C18.404 12.301 18.039 11.4357 17.309 10.731C16.5783 10.0257 15.6947 9.673 14.658 9.673H6.916L9.881 12.638L9.173 13.346L5 9.173L9.173 5L9.881 5.708L6.916 8.673H14.658C15.9667 8.673 17.085 9.12433 18.013 10.027C18.9397 10.9297 19.403 12.0297 19.403 13.327C19.403 14.6243 18.9397 15.7277 18.013 16.637C17.0863 17.5463 15.9677 18.0007 14.657 18H7.404Z" fill="#E0E0E0"/>
</g>
</svg>
