<svg width="54" height="54" viewBox="0 0 54 54" fill="none" xmlns="http://www.w3.org/2000/svg">
<g id="ic:round-photo">
<path id="Vector" d="M46.998 42.7556V11.6445C46.998 9.20001 44.998 7.20001 42.5536 7.20001H11.4425C8.99805 7.20001 6.99805 9.20001 6.99805 11.6445V42.7556C6.99805 45.2 8.99805 47.2 11.4425 47.2H42.5536C44.998 47.2 46.998 45.2 46.998 42.7556ZM20.1092 31.6L24.7758 37.2222L31.6647 28.3556C32.1092 27.7778 32.998 27.7778 33.4425 28.3778L41.2425 38.7778C41.3663 38.9429 41.4417 39.1392 41.4602 39.3447C41.4788 39.5502 41.4397 39.7568 41.3474 39.9414C41.2551 40.1259 41.1133 40.2811 40.9377 40.3896C40.7622 40.4981 40.56 40.5556 40.3536 40.5556H13.7092C12.7758 40.5556 12.2647 39.4889 12.8425 38.7556L18.3758 31.6445C18.798 31.0667 19.6425 31.0445 20.1092 31.6Z" fill="#757575"/>
</g>
</svg>
