<svg width="24" height="24" viewBox="0 0 24 24" fill="none" xmlns="http://www.w3.org/2000/svg">
<g id="Group">
<path id="Vector" d="M1.33594 19.9998C1.33594 18.5853 1.89784 17.2288 2.89803 16.2286C3.89823 15.2284 5.25478 14.6665 6.66927 14.6665H17.3359C18.7504 14.6665 20.107 15.2284 21.1072 16.2286C22.1074 17.2288 22.6693 18.5853 22.6693 19.9998C22.6693 20.7071 22.3883 21.3854 21.8882 21.8855C21.3881 22.3856 20.7098 22.6665 20.0026 22.6665H4.0026C3.29536 22.6665 2.61708 22.3856 2.11699 21.8855C1.61689 21.3854 1.33594 20.7071 1.33594 19.9998Z" stroke="auto" stroke-width="1.5" stroke-linejoin="round"/>
<path id="Vector_2" d="M12.002 9.33301C14.2111 9.33301 16.002 7.54215 16.002 5.33301C16.002 3.12387 14.2111 1.33301 12.002 1.33301C9.79281 1.33301 8.00195 3.12387 8.00195 5.33301C8.00195 7.54215 9.79281 9.33301 12.002 9.33301Z" stroke="auto" stroke-width="1.5"/>
</g>
</svg>
