<svg width="128" height="128" viewBox="0 0 128 128" fill="none" xmlns="http://www.w3.org/2000/svg">
<rect width="128" height="128" rx="5" fill="#EEEEEE"/>
<path d="M84 66.7558V35.6446C84 33.2002 82 31.2002 79.5556 31.2002H48.4444C46 31.2002 44 33.2002 44 35.6446V66.7558C44 69.2002 46 71.2002 48.4444 71.2002H79.5556C82 71.2002 84 69.2002 84 66.7558ZM57.1111 55.6002L61.7778 61.2224L68.6667 52.3558C69.1111 51.778 70 51.778 70.4444 52.378L78.2444 62.778C78.3683 62.9431 78.4436 63.1393 78.4622 63.3449C78.4807 63.5504 78.4416 63.757 78.3494 63.9415C78.2571 64.1261 78.1152 64.2813 77.9397 64.3898C77.7642 64.4983 77.5619 64.5558 77.3556 64.5558H50.7111C49.7778 64.5558 49.2667 63.4891 49.8444 62.7558L55.3778 55.6446C55.8 55.0669 56.6444 55.0446 57.1111 55.6002Z" fill="#757575"/>
<path d="M46.5703 99.4658H45.3984V92.1846H43.3516V98.7471H42.2266V85.8877H43.3516V91.1689H45.3984V85.5752H46.5703V99.4658ZM40.4141 88.2939H36.4297V94.9814C37.4557 94.9762 38.3255 94.9476 39.0391 94.8955C39.7578 94.8382 40.4818 94.7367 41.2109 94.5908L41.3203 95.6221C40.5286 95.7835 39.7474 95.8929 38.9766 95.9502C38.2109 96.0023 37.2526 96.0283 36.1016 96.0283H35.2109V87.2783H40.4141V88.2939ZM61.0822 97.7627H48.3634V96.7471H51.9103V93.4346H49.5197V92.4189H51.6916V87.8877H49.4884V86.8721H59.8634V87.8877H57.6603V92.4189H59.8322V93.4346H57.4416V96.7471H61.0822V97.7627ZM56.4572 92.4189V87.8877H52.9103V92.4189H56.4572ZM56.2228 96.7471V93.4346H53.1447V96.7471H56.2228ZM66.6878 89.3096C66.6878 90.1064 66.8493 90.9033 67.1722 91.7002C67.4951 92.4919 67.93 93.2002 68.4769 93.8252C69.029 94.4502 69.6305 94.9242 70.2816 95.2471L69.5316 96.2314C68.7659 95.8304 68.0784 95.2419 67.4691 94.4658C66.8649 93.6898 66.4092 92.82 66.1019 91.8564C65.7946 92.8825 65.331 93.8096 64.7113 94.6377C64.0915 95.4606 63.3909 96.0804 62.6097 96.4971L61.8284 95.5127C62.5003 95.1846 63.1123 94.6924 63.6644 94.0361C64.2217 93.3747 64.6618 92.6299 64.9847 91.8018C65.3128 90.9684 65.4795 90.1377 65.4847 89.3096V86.7783H66.6878V89.3096ZM72.7816 91.2158H75.1097V92.2783H72.7816V99.4658H71.5628V85.5752H72.7816V91.2158ZM80.6997 88.5596C80.6997 89.1742 80.8507 89.7653 81.1528 90.333C81.4549 90.8955 81.8768 91.3903 82.4184 91.8174C82.9601 92.2393 83.5747 92.5596 84.2622 92.7783L83.6372 93.7627C82.8247 93.4867 82.1111 93.0752 81.4966 92.5283C80.882 91.9814 80.4184 91.3408 80.1059 90.6064C79.8039 91.3981 79.3403 92.0934 78.7153 92.6924C78.0955 93.2913 77.3716 93.7419 76.5434 94.0439L75.9028 93.0596C76.5903 92.8148 77.2049 92.4632 77.7466 92.0049C78.2882 91.5465 78.7101 91.0205 79.0122 90.4268C79.3143 89.8278 79.4653 89.2054 79.4653 88.5596V87.7471H76.2153V86.7471H83.9028V87.7471H80.6997V88.5596ZM87.1684 95.7783H85.9497V85.5908H87.1684V95.7783ZM87.6059 99.1689H78.1997V94.8096H79.4184V98.1377H87.6059V99.1689Z" fill="#757575"/>
</svg>
