<svg width="80" height="80" viewBox="0 0 80 80" fill="none" xmlns="http://www.w3.org/2000/svg">
<path d="M24 8C21.8783 8 19.8434 8.84285 18.3431 10.3431C16.8429 11.8434 16 13.8783 16 16V36.828C17.3076 36.4583 18.6467 36.2106 20 36.088V16C20 14.9391 20.4214 13.9217 21.1716 13.1716C21.9217 12.4214 22.9391 12 24 12H40V26C40 27.5913 40.6321 29.1174 41.7574 30.2426C42.8826 31.3679 44.4087 32 46 32H60V64C60 65.0609 59.5786 66.0783 58.8284 66.8284C58.0783 67.5786 57.0609 68 56 68H41.6C40.8721 69.4249 39.9909 70.7662 38.972 72H56C58.1217 72 60.1566 71.1571 61.6569 69.6569C63.1571 68.1566 64 66.1217 64 64V29.656C63.9986 28.0652 63.3655 26.5401 62.24 25.416L46.584 9.756C45.4592 8.63193 43.9342 8.00034 42.344 8H24ZM59.172 28H46C45.4696 28 44.9609 27.7893 44.5858 27.4142C44.2107 27.0391 44 26.5304 44 26V12.828L59.172 28ZM40 58C40 62.7739 38.1036 67.3523 34.7279 70.7279C31.3523 74.1036 26.7739 76 22 76C17.2261 76 12.6477 74.1036 9.27208 70.7279C5.89642 67.3523 4 62.7739 4 58C4 53.2261 5.89642 48.6477 9.27208 45.2721C12.6477 41.8964 17.2261 40 22 40C26.7739 40 31.3523 41.8964 34.7279 45.2721C38.1036 48.6477 40 53.2261 40 58ZM22 48C21.4696 48 20.9609 48.2107 20.5858 48.5858C20.2107 48.9609 20 49.4696 20 50V58C20 58.5304 20.2107 59.0391 20.5858 59.4142C20.9609 59.7893 21.4696 60 22 60C22.5304 60 23.0391 59.7893 23.4142 59.4142C23.7893 59.0391 24 58.5304 24 58V50C24 49.4696 23.7893 48.9609 23.4142 48.5858C23.0391 48.2107 22.5304 48 22 48ZM22 68.5C22.663 68.5 23.2989 68.2366 23.7678 67.7678C24.2366 67.2989 24.5 66.663 24.5 66C24.5 65.337 24.2366 64.7011 23.7678 64.2322C23.2989 63.7634 22.663 63.5 22 63.5C21.337 63.5 20.7011 63.7634 20.2322 64.2322C19.7634 64.7011 19.5 65.337 19.5 66C19.5 66.663 19.7634 67.2989 20.2322 67.7678C20.7011 68.2366 21.337 68.5 22 68.5Z" fill="#377FF8"/>
</svg>
