<svg width="28" height="28" viewBox="0 0 28 28" fill="none" xmlns="http://www.w3.org/2000/svg">
<path d="M12.5798 21.9658C14.4358 21.9675 16.2506 21.4194 17.7953 20.3905C19.3399 19.3617 20.5451 17.8982 21.2587 16.1849C21.9718 14.4714 22.1599 12.5847 21.7991 10.7641C21.4383 8.94353 20.5449 7.27113 19.2322 5.9591C17.9202 4.64654 16.2486 3.75237 14.4286 3.38959C12.6086 3.0268 10.7219 3.2117 9.00701 3.9209C7.29206 4.6301 5.82585 5.83177 4.79368 7.37405C3.76151 8.91632 3.2097 10.73 3.20801 12.5858C3.20801 15.0719 4.19501 17.4554 5.95201 19.2136C7.70957 20.9719 10.0926 21.9616 12.5787 21.9658M19.2357 19.2393L24.7913 24.7914" stroke="#9E9E9E" stroke-width="1.5" stroke-linecap="round" stroke-linejoin="round"/>
</svg>
