<svg width="39" height="31" viewBox="0 0 39 31" fill="none" xmlns="http://www.w3.org/2000/svg">
<path id="Arrow 65" d="M37.8859 8.53448C38.2823 8.14995 38.2919 7.51686 37.9074 7.12044L31.6411 0.660319C31.2565 0.263895 30.6234 0.254254 30.227 0.638788C29.8306 1.02332 29.821 1.65641 30.2055 2.05284L35.7756 7.79516L30.0332 13.3652C29.6368 13.7498 29.6272 14.3829 30.0117 14.7793C30.3962 15.1757 31.0293 15.1853 31.4257 14.8008L37.8859 8.53448ZM2.74506 30.8422C2.94979 23.001 3.59295 17.6047 7.88137 14.0645C10.0473 12.2765 13.2282 10.8923 17.9728 9.99288C22.7165 9.09367 28.9558 8.69143 37.1744 8.81658L37.2048 6.81681C28.9233 6.69071 22.5327 7.0929 17.6003 8.02787C12.6689 8.96267 9.12747 10.4424 6.60812 12.5222C1.52606 16.7175 0.947251 23.0721 0.745745 30.79L2.74506 30.8422Z" fill="black"/>
</svg>
