<svg width="24" height="25" viewBox="0 0 24 25" fill="none" xmlns="http://www.w3.org/2000/svg">
<g id="material-symbols-light:undo">
<path id="Vector" d="M7.404 18.5V17.5H14.658C15.6953 17.5 16.5787 17.1443 17.308 16.433C18.0387 15.7217 18.404 14.853 18.404 13.827C18.404 12.801 18.039 11.9357 17.309 11.231C16.5783 10.5257 15.6947 10.173 14.658 10.173H6.916L9.881 13.138L9.173 13.846L5 9.673L9.173 5.5L9.881 6.208L6.916 9.173H14.658C15.9667 9.173 17.085 9.62433 18.013 10.527C18.9397 11.4297 19.403 12.5297 19.403 13.827C19.403 15.1243 18.9397 16.2277 18.013 17.137C17.0863 18.0463 15.9677 18.5007 14.657 18.5H7.404Z" fill="black"/>
</g>
</svg>
